<svg width="74" height="37" viewBox="0 0 74 37" fill="none" xmlns="http://www.w3.org/2000/svg">
<path d="M65.25 36.875C62.4241 36.875 60.2612 36.0246 58.7612 34.3237C57.2746 32.6094 56.5312 30.1384 56.5312 26.9107V10.1161C56.5312 7.08929 57.2679 4.79241 58.7411 3.22545C60.2277 1.65848 62.3973 0.875 65.25 0.875C68.1027 0.875 70.2656 1.65848 71.7388 3.22545C73.2254 4.79241 73.9688 7.08929 73.9688 10.1161V26.9107C73.9688 30.1384 73.2188 32.6094 71.7188 34.3237C70.2321 36.0246 68.0759 36.875 65.25 36.875ZM65.3103 30.3661C66.3817 30.3661 66.9174 29.3281 66.9174 27.2522V9.99554C66.9174 8.25446 66.3951 7.38393 65.3504 7.38393C64.1719 7.38393 63.5826 8.27455 63.5826 10.0558V27.2924C63.5826 28.3906 63.7165 29.1808 63.9844 29.6629C64.2522 30.1317 64.6942 30.3661 65.3103 30.3661Z" fill="#0E1011"/>
<path d="M42.7299 36.5536V24.9219L37.0848 1.19644H44.096L46.0647 13.1697L48.0335 1.19644H55.0246L49.3996 24.9219V36.5536H42.7299Z" fill="#0E1011"/>
<path d="M18.4822 36.5536L21.8974 1.19644H33.8907L37.2456 36.5536H30.5558L30.0536 30.8482H25.7947L25.3527 36.5536H18.4822ZM26.2969 25.2031H29.5112L27.9643 7.22323H27.6429L26.2969 25.2031Z" fill="#0E1011"/>
<path d="M0 36.5536V1.19644H6.99107V15.3594L10.2857 1.19644H17.3973L13.4397 17.3884L18.221 36.5536H10.8884L7.03125 19.4375V36.5536H0Z" fill="#0E1011"/>
</svg>
