<svg width="1000" height="800" viewBox="0 0 1000 800" fill="none" xmlns="http://www.w3.org/2000/svg">
<path d="M853.32 109.485C852.192 111.188 850.147 111.267 847.184 109.721C843.544 107.83 839.859 106.273 836.129 105.05C823.803 101.021 810.273 97.4753 795.541 94.4139C792.803 93.8436 789.321 93.4084 785.095 93.1083C783.192 92.9732 779.714 92.5793 774.66 91.9265C772.163 91.6038 768.159 91.7051 762.646 92.2304C753.001 93.1421 743.131 92.1291 734.648 93.3222C727.304 94.3464 720.017 96.136 711.229 98.2632C706.769 99.3437 702.547 100.934 698.561 103.035C698.415 103.109 698.298 103.23 698.229 103.378C698.159 103.527 698.141 103.696 698.177 103.857C699.914 111.976 702.844 119.768 706.965 127.234" stroke="white"/>
<path d="M706.965 127.234C697.324 130.836 688.6 135.807 680.794 142.148C669.521 151.295 659.421 160.858 650.494 170.838C650.44 170.897 650.372 170.941 650.296 170.965C650.22 170.99 650.139 170.994 650.061 170.976C649.983 170.959 649.911 170.922 649.852 170.868C649.793 170.814 649.75 170.745 649.727 170.669C649.306 169.236 649.151 167.506 649.264 165.48C649.888 154.517 650.039 142.981 649.715 130.87C649.678 129.474 649.569 128.176 649.388 126.976C649.363 126.815 649.277 126.671 649.148 126.574C649.019 126.477 648.858 126.436 648.7 126.458C637.818 128.011 629.057 129.294 622.416 130.307C619.476 130.757 617.032 130.971 615.084 130.949C603.186 130.799 590.481 130.045 576.966 128.686C575.079 128.491 572.687 128.405 569.792 128.427C552.51 128.585 536.514 129.069 525.651 128.686C513.362 128.259 500.521 127.861 487.127 127.493C483.247 127.381 481.126 126.998 477.854 126.649C476.662 126.515 475.459 126.511 474.267 126.638C462.761 127.853 456.117 128.491 454.334 128.551C441.767 128.945 426.087 129.407 411.084 129.35C390.809 129.268 371.342 129.264 352.684 129.339C345.028 129.369 337.308 128.397 329.525 126.424C329.415 126.395 329.3 126.393 329.189 126.418C329.078 126.443 328.975 126.494 328.888 126.568C328.8 126.642 328.732 126.736 328.687 126.842C328.643 126.948 328.625 127.063 328.634 127.178C329.378 136.633 330.032 141.709 329.592 149.768C329.397 153.452 328.758 159.95 327.675 169.262C326.945 175.542 326.471 182.048 326.253 188.779C325.554 209.916 325.204 220.875 325.204 221.655C325.212 222.471 325.125 223.286 324.945 224.087C324.23 227.276 323.907 229.984 323.975 232.213C323.977 232.368 323.931 232.521 323.844 232.65C323.756 232.779 323.632 232.879 323.487 232.934C323.342 232.99 323.185 232.999 323.036 232.96C322.887 232.922 322.754 232.838 322.655 232.719C317.225 226.349 310.005 217.041 300.996 204.795C294.355 195.768 290.148 190.129 288.373 187.878C282.244 180.119 278.036 174.451 275.75 170.871C273.276 167.007 269.027 161.353 263.003 153.91C257.836 147.532 252.515 140.017 247.04 131.365C246.841 131.056 246.556 130.807 246.217 130.645C244.901 130.007 243.483 129.737 241.964 129.834C224.848 130.96 206.866 131.508 188.02 131.478C164.985 131.455 149.79 132.232 128.605 132.344C124.792 132.359 118.486 131.714 109.687 130.408C108.912 130.296 107.506 130.397 105.468 130.712C105.285 130.742 105.117 130.83 104.989 130.962C104.861 131.094 104.78 131.263 104.757 131.444C103.892 137.829 103.46 141.769 103.46 143.262C103.452 156.656 103.001 170.834 102.106 185.796C101.911 189.112 101.847 192.827 101.915 196.939C101.982 201.801 101.215 208.262 101.892 214.047C102.118 215.945 102.234 217.952 102.242 220.068C102.366 244.2 99.6697 271.123 99.038 292.8C98.7748 301.85 98.2371 310.561 97.4248 318.935C95.744 336.426 96.2404 351.294 94.6498 368.717C93.7699 378.292 93.2848 387.109 93.1946 395.167C93.0367 409.237 91.8522 418.556 90.2729 436.441C89.4532 445.73 88.8402 456.066 88.4341 467.449C87.6445 489.457 86.3134 512.092 84.4408 535.353C84.0422 540.245 83.7639 547.156 83.606 556.085C83.2563 575.523 81.7334 591.494 82.1847 609.897C82.4328 619.899 81.9741 630.175 80.8084 640.725C80.6279 642.391 80.5301 648.964 80.5151 660.444C80.5038 667.715 83.9783 669.707 90.2391 673.838C96.0599 677.672 102.452 680.119 109.416 681.177" stroke="black"/>
<path d="M109.416 681.177C96.827 684.137 83.3127 684.204 74.6153 672.825C70.2384 667.096 67.7116 660.32 66.3353 653.522C65.8239 651.016 64.2935 643.025 61.7441 629.548C60.4581 622.743 58.2471 614.68 55.1111 605.361C55.1039 605.349 55.0934 605.34 55.081 605.334C55.0685 605.329 55.0547 605.327 55.0413 605.33C55.0279 605.332 55.0155 605.339 55.0058 605.348C54.9961 605.358 54.9896 605.37 54.987 605.383C54.6862 619.227 54.3891 632.981 54.0958 646.645C53.8927 656.34 54.9907 666.282 57.3897 676.472C57.5702 677.237 57.1002 677.943 55.9797 678.588" stroke="white"/>
<path d="M109.416 681.177C114.387 681.619 117.587 681.796 119.016 681.706C132.09 680.918 143.1 679.837 154.381 680.029C168.805 680.276 185.046 680.017 203.102 679.252C226.735 678.25 246.431 679.038 273.009 679.117C280.397 679.139 290.437 678.475 295.976 673.523C300.443 669.527 307.144 660.827 312.389 656.021C312.54 655.885 312.719 655.785 312.914 655.727C313.109 655.67 313.314 655.657 313.514 655.689C313.715 655.722 313.905 655.799 314.072 655.915C314.238 656.031 314.377 656.182 314.476 656.359C317.755 662.166 321.06 667.062 324.392 671.047C328.961 676.494 335.402 676.506 341.527 676.348C348.935 676.153 355.583 675.875 361.472 675.515C374.219 674.727 384.089 674.986 395.426 675.324C400.473 675.474 405.15 675.448 409.46 675.245C427.704 674.39 450.085 674.191 476.602 674.649C484.98 674.791 494.843 673.996 506.191 672.262C524.139 669.516 539.864 659.713 554.8 650.067C555.084 649.882 555.424 649.806 555.76 649.851C556.095 649.897 556.403 650.061 556.627 650.315C560.632 654.85 563.215 658.959 567.987 662.223C576.199 667.82 584.389 671.234 592.556 672.465C599.355 673.493 609.846 673.887 624.029 673.647C630.504 673.534 636.912 672.161 643.387 671.373C664.369 668.818 682.362 658.092 699.193 645.846C712.515 636.144 722.036 621.85 729.346 608.433C739.002 590.718 742.014 571.696 740.863 550.536C740.457 543.119 738.427 535.724 735.731 529.399C731.294 518.976 726.191 509.368 720.423 500.574C720.391 500.524 720.374 500.466 720.374 500.407C720.374 500.348 720.39 500.29 720.422 500.241C720.453 500.192 720.497 500.154 720.549 500.131C720.602 500.108 720.66 500.102 720.716 500.112C726.928 501.02 736.84 502.213 750.452 503.691C756.837 504.382 761.451 504.584 764.293 504.299C775.788 503.151 787.024 502.825 796.906 500.664C818.723 495.884 837.625 488.335 853.614 478.018C858.449 474.896 865.037 470.053 873.377 463.487C880.477 457.905 886.354 452.266 891.009 446.571C902.162 432.952 910.6 417.404 916.323 399.929C921.004 385.634 922.358 370.406 921.67 355.459C921.362 348.796 920.35 342.361 918.636 336.156C915.5 324.818 912.92 317.157 910.897 313.172C907.896 307.267 902.305 298.06 894.123 285.552C888.764 277.369 882.402 270.571 876.638 263.064C876.508 262.897 876.437 262.692 876.434 262.48C876.432 262.269 876.5 262.063 876.626 261.893C878.928 258.832 883.316 256.941 885.651 254.701C886.455 253.936 888.941 251.932 893.107 248.691C894.957 247.257 897.364 245.16 900.327 242.399C906.298 236.831 913.021 232.224 920.497 228.577C920.699 228.482 920.867 228.326 920.978 228.13C921.089 227.935 921.137 227.71 921.117 227.486C920.877 224.747 920.11 221.91 918.816 218.977C916.169 212.974 912.826 206.161 908.787 198.537C901.613 184.974 891.246 172.83 880.879 161.98C871.712 152.368 861.585 144.181 850.5 137.421C838.17 129.891 824.058 125.805 810.691 121.922C804.148 120.024 797.534 118.613 790.848 117.69C770.137 114.839 751.185 115.142 733.993 118.602C727.105 119.982 718.095 122.86 706.965 127.234" stroke="black"/>
<path d="M853.32 109.485C852.192 111.188 850.147 111.267 847.184 109.721C843.544 107.83 839.859 106.273 836.129 105.05C823.803 101.021 810.273 97.4754 795.541 94.4139C792.803 93.8437 789.321 93.4085 785.095 93.1083C783.192 92.9733 779.714 92.5793 774.66 91.9265C772.163 91.6039 768.159 91.7052 762.646 92.2304C753.001 93.1421 743.131 92.1291 734.648 93.3222C727.304 94.3464 720.017 96.136 711.229 98.2633C706.769 99.3438 702.547 100.935 698.561 103.036C698.415 103.109 698.298 103.23 698.228 103.378C698.159 103.527 698.141 103.696 698.177 103.857C699.914 111.976 702.844 119.768 706.965 127.234C697.324 130.836 688.6 135.807 680.794 142.148C669.521 151.295 659.421 160.858 650.494 170.838C650.44 170.897 650.372 170.941 650.296 170.965C650.22 170.99 650.139 170.994 650.061 170.976C649.983 170.959 649.911 170.922 649.852 170.868C649.793 170.814 649.75 170.745 649.727 170.669C649.306 169.236 649.151 167.506 649.264 165.48C649.888 154.517 650.039 142.981 649.715 130.87C649.678 129.474 649.569 128.176 649.388 126.976C649.363 126.815 649.277 126.671 649.148 126.574C649.019 126.477 648.858 126.436 648.7 126.458C637.818 128.011 629.057 129.294 622.416 130.307C619.476 130.757 617.032 130.971 615.084 130.949C603.186 130.799 590.481 130.045 576.966 128.686C575.079 128.491 572.687 128.405 569.792 128.428C552.51 128.585 536.514 129.069 525.651 128.686C513.362 128.259 500.521 127.861 487.127 127.493C483.247 127.381 481.126 126.998 477.854 126.649C476.662 126.515 475.459 126.511 474.267 126.638C462.761 127.854 456.116 128.491 454.334 128.551C441.767 128.945 426.087 129.407 411.084 129.35C390.809 129.268 371.342 129.264 352.684 129.339C345.028 129.369 337.308 128.398 329.525 126.424C329.415 126.395 329.3 126.393 329.189 126.418C329.078 126.443 328.975 126.494 328.887 126.568C328.8 126.642 328.732 126.736 328.687 126.842C328.643 126.948 328.625 127.064 328.634 127.178C329.378 136.633 330.032 141.709 329.592 149.768C329.397 153.452 328.758 159.95 327.675 169.262C326.945 175.542 326.471 182.048 326.253 188.779C325.554 209.916 325.204 220.875 325.204 221.655C325.212 222.471 325.125 223.286 324.945 224.087C324.23 227.276 323.907 229.984 323.975 232.213C323.977 232.368 323.931 232.521 323.844 232.65C323.756 232.779 323.632 232.879 323.487 232.934C323.342 232.99 323.185 232.999 323.036 232.96C322.887 232.922 322.754 232.838 322.655 232.719C317.225 226.349 310.005 217.041 300.996 204.795C294.355 195.768 290.148 190.129 288.373 187.878C282.244 180.119 278.036 174.451 275.75 170.871C273.276 167.007 269.026 161.353 263.003 153.91C257.836 147.532 252.515 140.017 247.04 131.365C246.841 131.056 246.556 130.807 246.217 130.645C244.901 130.007 243.483 129.737 241.964 129.834C224.848 130.96 206.866 131.508 188.02 131.478C164.985 131.455 149.79 132.232 128.605 132.344C124.792 132.359 118.486 131.714 109.687 130.408C108.912 130.296 107.506 130.397 105.468 130.712C105.285 130.742 105.117 130.83 104.989 130.962C104.861 131.094 104.78 131.263 104.757 131.444C103.892 137.829 103.46 141.769 103.46 143.262C103.452 156.656 103.001 170.834 102.106 185.796C101.911 189.112 101.847 192.827 101.915 196.939C101.982 201.801 101.215 208.262 101.892 214.047C102.118 215.945 102.234 217.952 102.242 220.068C102.366 244.2 99.6697 271.123 99.0379 292.8C98.7747 301.85 98.237 310.561 97.4248 318.935C95.744 336.426 96.2403 351.294 94.6498 368.718C93.7699 378.292 93.2848 387.109 93.1946 395.168C93.0366 409.237 91.8522 418.556 90.2729 436.441C89.4531 445.73 88.8402 456.066 88.4341 467.449C87.6445 489.457 86.3134 512.092 84.4408 535.353C84.0422 540.245 83.7639 547.156 83.606 556.085C83.2563 575.523 81.7334 591.494 82.1846 609.897C82.4328 619.899 81.974 630.175 80.8084 640.725C80.6279 642.391 80.5301 648.964 80.5151 660.444C80.5038 667.715 83.9783 669.707 90.239 673.838C96.0599 677.672 102.452 680.119 109.416 681.177C96.8269 684.137 83.3127 684.204 74.6153 672.825C70.2384 667.096 67.7115 660.32 66.3353 653.522C65.8239 651.016 64.2935 643.025 61.744 629.548C60.458 622.743 58.247 614.68 55.111 605.361C55.1039 605.349 55.0934 605.34 55.0809 605.334C55.0685 605.329 55.0546 605.327 55.0412 605.33C55.0278 605.332 55.0155 605.339 55.0058 605.348C54.9961 605.358 54.9895 605.37 54.9869 605.383C54.6861 619.227 54.389 632.981 54.0957 646.645C53.8927 656.34 54.9907 666.282 57.3897 676.472C57.5702 677.237 57.1001 677.943 55.9796 678.588C53.2948 673.013 51.5801 667.329 50.8356 661.536C50.2114 656.711 49.9369 651.841 50.0121 646.927C50.2603 630.666 50.8356 614.624 51.7381 598.799C52.3999 587.131 52.7082 577.568 52.6631 570.109C52.5804 556.805 52.8022 547.238 53.3287 541.408C54.5545 527.774 55.2313 519.895 55.3592 517.772C55.9834 507.537 56.4459 500.84 56.7467 497.681C57.2957 491.933 57.7131 485.244 57.9989 477.613C58.3749 467.791 59.0404 457.991 59.9955 448.214C60.3339 444.807 60.6047 442.789 60.8077 442.158C61.7666 439.187 60.977 436.936 61.1574 433.785C62.2629 414.921 62.5675 399.197 63.7294 376.619C64.1431 368.665 64.6093 355.504 65.1282 337.135C65.2636 332.543 65.9781 323.996 67.2716 311.495C68.5124 299.52 69.257 289.683 70.0241 278.686C70.2647 275.137 70.5016 270.751 70.7347 265.529C71.6973 243.911 72.0395 220.901 71.7613 196.5C71.5357 176.769 72.6976 158.603 76.3864 142.575C79.8834 127.325 90.4759 116.148 104.453 109.429C114.662 104.51 127.623 103.339 139.039 103.294C157.765 103.238 177.518 101.719 196.198 101.752C213.435 101.786 223.983 101.404 237.429 102.642C248.567 103.67 258.96 107.89 268.609 115.304C277.34 122.012 283.236 126.439 286.297 128.585C290.027 131.196 293.724 131.271 297.386 128.81C300.477 126.739 303.861 123.265 307.539 118.388C309.945 115.199 311.682 113.124 312.75 112.164C316.052 109.207 318.169 107.511 319.101 107.076C322.23 105.628 326.088 104.611 330.675 104.026C336.203 103.328 341.994 102.814 348.048 102.484C358.392 101.921 370.248 102.709 380.547 102.169C404.304 100.908 430.532 102.191 460.437 101.37C474.087 100.998 489.857 102.27 499.175 101.482C519.465 99.7565 539.112 99.4226 558.116 100.481C568.495 101.066 583.577 100.481 596.471 101.01C612.444 101.662 626.331 102.146 641.616 105.782C643.759 106.3 648.858 109.721 651.25 111.837C653.085 113.465 655.555 115.39 658.661 117.611C659.045 117.889 659.505 118.042 659.979 118.05C660.454 118.058 660.919 117.921 661.312 117.656C671.427 110.843 681.862 105.29 692.616 100.998C700.587 97.8243 706.138 95.9522 709.266 95.3819C718.494 93.6786 723.766 92.6806 725.082 92.388C730.135 91.2624 735.43 90.4971 740.965 90.0919C750.862 89.3565 761.074 88.9926 771.603 89.0001C773.874 89.0076 777.525 89.4166 782.557 90.227C784.001 90.4521 785.411 92.0953 786.787 91.0599C787.268 90.7072 787.896 90.5721 788.671 90.6546C791.769 90.9848 794.529 91.375 796.951 91.8252C812.044 94.6315 826.397 98.4809 840.009 103.373C844.521 104.994 848.958 107.031 853.32 109.485Z" fill="white"/>
<path d="M853.32 109.485C861.638 113.754 869.042 118.301 875.532 123.126C888.888 133.046 901.763 144.962 914.157 158.873C916.526 161.537 919.218 165.225 922.234 169.937C926.28 176.263 930.145 182.446 933.831 188.486C936.019 192.065 938.501 200.045 941.31 206.911C942.107 208.854 942.708 211.057 943.114 213.518C943.363 215.011 944.22 218.755 945.687 224.751C946.22 226.949 946.345 230.69 946.059 235.972C946.022 236.554 945.831 237.117 945.506 237.604C943.475 240.621 942.344 242.241 942.111 242.466C935.019 249.302 928.525 255.763 922.629 261.848C916.616 268.061 919.436 272.518 924.535 278.056C927.07 280.817 929.232 283.421 931.022 285.867C931.254 286.196 931.454 286.543 931.619 286.903C937.425 299.786 941.776 310.719 944.671 319.701C945.626 322.687 946.743 327.347 948.022 333.68C950.3 345.036 950.368 355.481 950.537 367.828C950.627 374.469 950.075 381.057 948.879 387.593C946.202 402.285 941.678 416.177 935.308 429.271C933.639 432.715 930.356 439.12 928.021 444.578C925.731 449.958 922.335 454.303 918.737 459.525C916.594 462.647 914.281 465.386 911.799 467.742C906.215 473.054 901.748 478.389 896.018 483.083C884.113 492.837 875.852 499.065 871.234 501.767C860.405 508.107 847.473 514.328 832.44 520.428C819.031 525.868 804.069 529.751 787.554 532.077C780.47 533.068 772.833 532.831 765.489 532.966C765.156 532.973 764.829 533.053 764.531 533.202C764.234 533.351 763.973 533.564 763.769 533.826C763.565 534.089 763.421 534.393 763.35 534.717C763.279 535.042 763.281 535.378 763.357 535.702C764.921 542.365 766.023 549.054 766.662 555.77C767.083 560.174 767.046 567.862 766.549 578.832C766.474 580.565 765.621 585.837 763.989 594.646C761.18 609.784 754.062 622.57 746.515 635.773C741.664 644.259 737.05 649.65 730.147 656.482C724.574 662.005 720.284 665.884 717.275 668.12C708.758 674.457 699.937 681.323 690.822 685.713C680.068 690.882 670.509 694.608 662.147 696.889C659.597 697.579 653.675 698.731 644.38 700.344C639.401 701.215 633.389 701.654 626.342 701.661C602.145 701.718 588.134 702.01 568.765 698.971C562.621 698.003 558.274 697.508 555.725 697.486C547.716 697.407 541.026 697.835 531.426 699.433C519.706 701.38 507.004 702.1 496.208 703.552C490.199 704.363 483.702 704.794 476.715 704.847C438.955 705.117 405.895 705.184 377.535 705.049C368.849 705.004 359.704 705.274 350.101 705.86C339.993 706.482 328.615 706.651 315.965 706.366C312.728 706.299 308.712 707.064 305.429 707.221C302.436 707.372 294.667 707.503 282.123 707.615C275.693 707.683 269.263 708.763 262.563 708.73C252.493 708.67 243.844 708.865 236.617 709.315C229.533 709.765 222.449 708.617 215.928 709.09C207.964 709.66 197.462 709.863 184.421 709.698C160.676 709.382 130.229 710.879 110.905 709.866C105.25 709.566 98.7033 708.197 91.2656 705.758C85.1289 703.755 79.2441 700.611 73.6113 696.326C66.9031 691.224 61.0258 685.311 55.9796 678.588C57.1001 677.943 57.5702 677.237 57.3897 676.472C54.9907 666.282 53.8927 656.34 54.0957 646.645C54.389 632.981 54.6861 619.227 54.9869 605.383C54.9895 605.37 54.9961 605.358 55.0058 605.348C55.0155 605.339 55.0278 605.332 55.0412 605.33C55.0546 605.327 55.0685 605.329 55.0809 605.334C55.0934 605.34 55.1039 605.349 55.111 605.361C58.247 614.68 60.458 622.743 61.744 629.548C64.2935 643.025 65.8239 651.016 66.3353 653.522C67.7115 660.321 70.2384 667.096 74.6153 672.825C83.3127 684.204 96.8269 684.137 109.416 681.177C114.387 681.619 117.587 681.796 119.016 681.706C132.09 680.918 143.1 679.837 154.381 680.029C168.805 680.276 185.046 680.017 203.102 679.252C226.735 678.25 246.431 679.038 273.009 679.117C280.397 679.139 290.437 678.475 295.976 673.523C300.443 669.527 307.144 660.827 312.389 656.021C312.54 655.885 312.719 655.785 312.914 655.727C313.109 655.67 313.314 655.657 313.514 655.689C313.715 655.722 313.905 655.799 314.072 655.915C314.238 656.031 314.376 656.182 314.476 656.359C317.755 662.166 321.06 667.062 324.392 671.047C328.961 676.494 335.402 676.506 341.527 676.348C348.935 676.153 355.583 675.875 361.472 675.515C374.219 674.727 384.089 674.986 395.426 675.324C400.473 675.474 405.15 675.448 409.46 675.245C427.704 674.39 450.085 674.191 476.602 674.649C484.98 674.791 494.843 673.996 506.191 672.262C524.139 669.516 539.864 659.713 554.8 650.067C555.083 649.882 555.424 649.806 555.76 649.851C556.095 649.897 556.403 650.061 556.627 650.315C560.632 654.85 563.215 658.959 567.987 662.223C576.199 667.82 584.389 671.234 592.556 672.465C599.355 673.493 609.846 673.887 624.029 673.647C630.504 673.534 636.912 672.161 643.387 671.373C664.369 668.818 682.362 658.092 699.192 645.846C712.515 636.144 722.036 621.85 729.346 608.433C739.002 590.718 742.014 571.696 740.863 550.536C740.457 543.119 738.427 535.724 735.731 529.399C731.294 518.976 726.191 509.368 720.423 500.574C720.391 500.524 720.374 500.466 720.374 500.407C720.374 500.348 720.39 500.29 720.422 500.241C720.453 500.192 720.497 500.154 720.549 500.131C720.602 500.108 720.66 500.102 720.716 500.112C726.928 501.02 736.84 502.213 750.452 503.691C756.837 504.382 761.451 504.584 764.293 504.299C775.788 503.151 787.024 502.825 796.906 500.664C818.722 495.884 837.625 488.335 853.614 478.018C858.449 474.897 865.037 470.053 873.377 463.487C880.477 457.905 886.354 452.266 891.009 446.571C902.162 432.952 910.6 417.404 916.323 399.929C921.004 385.634 922.358 370.406 921.67 355.459C921.362 348.796 920.35 342.361 918.635 336.156C915.499 324.818 912.92 317.157 910.897 313.172C907.896 307.267 902.305 298.06 894.123 285.552C888.764 277.369 882.402 270.571 876.637 263.064C876.508 262.897 876.436 262.692 876.434 262.48C876.432 262.269 876.5 262.063 876.626 261.893C878.927 258.832 883.316 256.941 885.651 254.701C886.455 253.936 888.941 251.932 893.107 248.691C894.957 247.257 897.364 245.16 900.327 242.399C906.298 236.831 913.021 232.224 920.497 228.577C920.699 228.482 920.867 228.326 920.978 228.13C921.089 227.935 921.137 227.71 921.117 227.486C920.877 224.747 920.109 221.91 918.816 218.977C916.169 212.974 912.826 206.161 908.787 198.537C901.613 184.974 891.246 172.83 880.879 161.98C871.712 152.368 861.585 144.181 850.5 137.421C838.17 129.891 824.058 125.805 810.691 121.922C804.148 120.024 797.534 118.613 790.848 117.69C770.137 114.839 751.185 115.142 733.993 118.602C727.105 119.982 718.095 122.86 706.965 127.234C702.844 119.768 699.914 111.976 698.177 103.857C698.141 103.696 698.159 103.527 698.228 103.378C698.298 103.23 698.415 103.109 698.561 103.035C702.547 100.934 706.769 99.3437 711.229 98.2632C720.017 96.136 727.304 94.3464 734.648 93.3222C743.131 92.1291 753.001 93.1421 762.646 92.2304C768.159 91.7051 772.163 91.6038 774.66 91.9265C779.714 92.5793 783.192 92.9732 785.095 93.1083C789.321 93.4084 792.803 93.8436 795.541 94.4139C810.273 97.4753 823.803 101.021 836.129 105.05C839.859 106.273 843.544 107.83 847.184 109.721C850.147 111.267 852.192 111.188 853.32 109.485Z" fill="white"/>
<path d="M109.416 681.177C102.452 680.119 96.0599 677.672 90.2391 673.838C83.9783 669.707 80.5038 667.715 80.5151 660.444C80.5301 648.964 80.6279 642.391 80.8084 640.725C81.9741 630.175 82.4328 619.899 82.1847 609.897C81.7334 591.494 83.2563 575.523 83.606 556.085C83.7639 547.156 84.0422 540.245 84.4408 535.353C86.3134 512.092 87.6445 489.457 88.4341 467.449C88.8402 456.066 89.4532 445.73 90.2729 436.441C91.8522 418.556 93.0367 409.237 93.1946 395.168C93.2848 387.109 93.7699 378.292 94.6498 368.718C96.2404 351.294 95.744 336.426 97.4248 318.935C98.2371 310.561 98.7748 301.85 99.038 292.8C99.6697 271.123 102.366 244.2 102.242 220.068C102.234 217.952 102.118 215.945 101.892 214.047C101.215 208.262 101.982 201.801 101.915 196.939C101.847 192.827 101.911 189.112 102.106 185.796C103.001 170.834 103.452 156.656 103.46 143.262C103.46 141.769 103.892 137.829 104.757 131.444C104.78 131.263 104.861 131.094 104.989 130.962C105.117 130.83 105.285 130.742 105.468 130.712C107.506 130.397 108.912 130.296 109.687 130.408C118.486 131.714 124.792 132.359 128.605 132.344C149.79 132.232 164.985 131.455 188.02 131.478C206.866 131.508 224.848 130.96 241.964 129.834C243.483 129.737 244.901 130.007 246.217 130.645C246.556 130.807 246.841 131.056 247.04 131.365C252.515 140.017 257.836 147.532 263.003 153.91C269.027 161.353 273.276 167.007 275.75 170.871C278.036 174.451 282.244 180.119 288.373 187.878C290.148 190.129 294.355 195.768 300.996 204.795C310.005 217.041 317.225 226.349 322.655 232.719C322.754 232.838 322.887 232.922 323.036 232.96C323.185 232.999 323.342 232.99 323.487 232.934C323.632 232.879 323.756 232.779 323.844 232.65C323.931 232.521 323.977 232.368 323.975 232.213C323.907 229.984 324.23 227.276 324.945 224.087C325.125 223.286 325.212 222.471 325.204 221.655C325.204 220.875 325.554 209.916 326.253 188.779C326.471 182.048 326.945 175.542 327.675 169.262C328.758 159.95 329.397 153.452 329.592 149.768C330.032 141.709 329.378 136.633 328.634 127.178C328.625 127.063 328.643 126.948 328.687 126.842C328.732 126.736 328.8 126.642 328.888 126.568C328.975 126.494 329.078 126.443 329.189 126.418C329.3 126.393 329.415 126.395 329.525 126.424C337.308 128.397 345.028 129.369 352.684 129.339C371.342 129.264 390.809 129.268 411.084 129.35C426.087 129.407 441.767 128.945 454.334 128.551C456.117 128.491 462.761 127.853 474.267 126.638C475.459 126.511 476.662 126.515 477.854 126.649C481.126 126.998 483.247 127.381 487.127 127.493C500.521 127.861 513.362 128.259 525.651 128.686C536.514 129.069 552.51 128.585 569.792 128.427C572.687 128.405 575.079 128.491 576.966 128.686C590.481 130.045 603.186 130.799 615.084 130.949C617.032 130.971 619.476 130.757 622.416 130.307C629.057 129.294 637.818 128.011 648.7 126.458C648.858 126.436 649.019 126.477 649.148 126.574C649.277 126.671 649.363 126.815 649.388 126.976C649.569 128.176 649.678 129.474 649.715 130.87C650.039 142.981 649.888 154.517 649.264 165.48C649.151 167.506 649.306 169.236 649.727 170.669C649.75 170.745 649.793 170.814 649.852 170.868C649.911 170.922 649.983 170.959 650.061 170.976C650.139 170.994 650.22 170.99 650.296 170.965C650.372 170.941 650.44 170.897 650.494 170.838C659.421 160.858 669.521 151.295 680.794 142.148C688.6 135.807 697.324 130.836 706.965 127.234C718.095 122.86 727.105 119.982 733.993 118.602C751.185 115.142 770.137 114.839 790.848 117.69C797.534 118.613 804.148 120.024 810.691 121.922C824.058 125.805 838.17 129.891 850.5 137.421C861.585 144.181 871.712 152.368 880.879 161.98C891.246 172.83 901.613 184.974 908.787 198.537C912.826 206.161 916.169 212.974 918.816 218.977C920.109 221.91 920.877 224.747 921.117 227.486C921.137 227.71 921.089 227.935 920.978 228.13C920.867 228.326 920.699 228.482 920.497 228.577C913.021 232.224 906.298 236.831 900.327 242.399C897.364 245.16 894.957 247.257 893.107 248.691C888.941 251.932 886.455 253.936 885.651 254.701C883.316 256.941 878.927 258.832 876.626 261.893C876.5 262.063 876.432 262.269 876.434 262.48C876.436 262.692 876.508 262.897 876.638 263.064C882.402 270.571 888.764 277.369 894.123 285.552C902.305 298.06 907.896 307.267 910.897 313.172C912.92 317.157 915.499 324.818 918.636 336.156C920.35 342.361 921.362 348.796 921.67 355.459C922.358 370.406 921.004 385.634 916.323 399.929C910.6 417.404 902.162 432.952 891.009 446.571C886.354 452.266 880.477 457.905 873.377 463.487C865.037 470.053 858.449 474.896 853.614 478.018C837.625 488.335 818.723 495.884 796.906 500.664C787.024 502.825 775.788 503.151 764.293 504.299C761.451 504.584 756.837 504.382 750.452 503.691C736.84 502.213 726.928 501.02 720.716 500.112C720.66 500.102 720.602 500.108 720.549 500.131C720.497 500.154 720.453 500.192 720.422 500.241C720.39 500.29 720.374 500.348 720.374 500.407C720.374 500.466 720.391 500.524 720.423 500.574C726.191 509.368 731.294 518.976 735.731 529.399C738.427 535.724 740.457 543.119 740.863 550.536C742.014 571.696 739.002 590.718 729.346 608.433C722.036 621.85 712.515 636.144 699.192 645.846C682.362 658.092 664.369 668.818 643.387 671.373C636.912 672.161 630.504 673.534 624.029 673.647C609.846 673.887 599.355 673.493 592.556 672.465C584.389 671.234 576.199 667.82 567.987 662.223C563.215 658.959 560.632 654.85 556.627 650.315C556.403 650.061 556.095 649.897 555.76 649.851C555.424 649.806 555.084 649.882 554.8 650.067C539.864 659.713 524.139 669.516 506.191 672.262C494.843 673.996 484.98 674.791 476.602 674.649C450.085 674.191 427.704 674.39 409.46 675.245C405.15 675.448 400.473 675.474 395.426 675.324C384.089 674.986 374.219 674.727 361.472 675.515C355.583 675.875 348.935 676.153 341.527 676.348C335.402 676.506 328.961 676.494 324.392 671.047C321.06 667.062 317.755 662.166 314.476 656.359C314.377 656.182 314.238 656.031 314.072 655.915C313.905 655.799 313.715 655.722 313.514 655.689C313.314 655.657 313.109 655.67 312.914 655.727C312.719 655.785 312.54 655.885 312.389 656.021C307.144 660.827 300.443 669.527 295.976 673.523C290.437 678.475 280.397 679.139 273.009 679.117C246.431 679.038 226.735 678.25 203.102 679.252C185.046 680.017 168.805 680.276 154.381 680.029C143.1 679.837 132.09 680.918 119.016 681.706C117.587 681.796 114.387 681.619 109.416 681.177Z" fill="black"/>
<path d="M681.256 288.962C681.128 283.897 680.267 279.774 678.673 276.593C675.413 270.02 675.954 262.726 675.481 256.648C674.477 243.963 675.571 232.314 679.079 220.237C681.279 212.662 687.032 201.373 693.947 196.5C694.247 196.288 694.473 195.98 694.59 195.622C694.77 195.052 694.831 194.511 694.771 194.001C694.488 191.649 696.632 189.42 698.358 188.058C704.382 183.278 708.811 179.455 711.646 176.589C712.302 175.927 713.079 175.393 713.936 175.013C716.001 174.102 717.072 173.696 719.069 172.042C725.559 166.654 733.523 163.364 742.962 162.171C749.504 161.338 756.709 160.273 764.575 158.974C764.634 158.964 764.69 158.94 764.738 158.904C764.786 158.868 764.824 158.82 764.849 158.766C764.875 158.712 764.887 158.653 764.884 158.593C764.882 158.533 764.865 158.475 764.835 158.423L764.451 157.77C764.449 157.766 764.448 157.762 764.448 157.758C764.448 157.754 764.45 157.75 764.452 157.746C764.454 157.743 764.458 157.74 764.461 157.738C764.465 157.736 764.47 157.736 764.474 157.736C764.639 157.804 764.729 157.83 764.745 157.815C764.781 157.779 764.808 157.734 764.823 157.685C764.837 157.636 764.84 157.584 764.83 157.534C764.82 157.485 764.797 157.439 764.765 157.402C764.732 157.364 764.69 157.336 764.643 157.32L761.552 156.363" stroke="white"/>
<path d="M254.768 456.171C251.508 456.104 246.894 455.699 245.416 459.323C245.297 459.605 245.236 459.907 245.236 460.212C245.168 468.338 244.999 473.546 244.728 475.834C244.593 476.96 243.81 477.707 242.382 478.074" stroke="white"/>
<path d="M681.256 288.962C681.128 283.897 680.267 279.774 678.673 276.593C675.413 270.019 675.954 262.726 675.481 256.648C674.477 243.963 675.571 232.314 679.079 220.237C681.279 212.662 687.032 201.373 693.947 196.5C694.247 196.288 694.473 195.98 694.59 195.622C694.771 195.052 694.831 194.511 694.771 194.001C694.489 191.649 696.632 189.42 698.358 188.058C704.382 183.278 708.811 179.455 711.646 176.589C712.302 175.927 713.079 175.392 713.936 175.013C716.001 174.102 717.072 173.696 719.069 172.042C725.559 166.654 733.523 163.364 742.962 162.171C749.504 161.338 756.709 160.273 764.575 158.974C764.635 158.964 764.69 158.94 764.738 158.904C764.786 158.868 764.824 158.82 764.849 158.766C764.875 158.712 764.887 158.653 764.884 158.593C764.882 158.533 764.865 158.475 764.835 158.423L764.451 157.77C764.449 157.766 764.448 157.762 764.448 157.758C764.448 157.754 764.45 157.75 764.452 157.746C764.454 157.743 764.458 157.74 764.461 157.738C764.465 157.736 764.47 157.736 764.474 157.736C764.639 157.804 764.73 157.83 764.745 157.815C764.781 157.779 764.808 157.734 764.823 157.685C764.838 157.636 764.84 157.584 764.83 157.534C764.82 157.485 764.797 157.439 764.765 157.402C764.732 157.364 764.69 157.336 764.643 157.32L761.552 156.363C782.421 153.985 802.238 157.586 821.001 167.168C827.762 170.62 834.546 174.724 841.352 179.482C844.052 181.365 846.338 183.2 848.21 184.985C856.919 193.299 864.537 202.052 871.065 211.244C871.41 211.73 871.583 212.317 871.557 212.913C871.53 213.508 871.306 214.077 870.918 214.531C869.835 215.799 869.181 216.538 868.956 216.748C860.36 224.593 856.536 227.677 850.94 233.642C846.563 238.324 842.265 242.489 836.208 247.16C832.921 249.711 830.218 252.225 828.097 254.701C828.045 254.76 827.981 254.807 827.909 254.838C827.836 254.868 827.758 254.882 827.681 254.878C827.603 254.873 827.528 254.851 827.461 254.812C827.394 254.774 827.338 254.72 827.296 254.656C818.948 242.118 808.288 232.468 795.315 225.707C784.881 220.271 772.506 217.255 760.796 220.496C749.832 223.527 743.902 230.502 743.007 241.42C741.574 258.809 760.774 264.617 774.863 269.445C781.587 271.749 788.724 274.109 796.274 276.525C808.796 280.532 818.734 284.764 830.872 290.369C862.458 304.956 881.556 339.217 876.886 373.715C873.765 396.781 864.53 415.431 849.181 429.665C835.035 442.777 814.289 454.573 793.375 458.175C783.185 459.923 771.976 460.722 759.747 460.572C749.346 460.437 738.314 458.479 728.725 456.138C724.664 455.147 718.64 453.009 710.654 449.722C699.26 445.032 689.228 439.491 680.557 433.098C674.262 428.461 669.964 424.319 662.372 417.622C655.792 411.822 648.806 404.359 641.413 395.235C641.323 395.124 641.256 394.996 641.218 394.858C641.179 394.72 641.17 394.575 641.19 394.432C641.21 394.29 641.259 394.153 641.335 394.03C641.41 393.906 641.509 393.8 641.627 393.716C660.744 380.164 670.521 373.242 670.957 372.949C677.034 368.98 683.821 365.311 691.319 361.942C696.925 359.421 701.155 356.1 705.735 353.196C705.889 353.099 706.065 353.04 706.247 353.025C706.428 353.01 706.611 353.04 706.777 353.111C706.944 353.182 707.091 353.292 707.204 353.433C707.318 353.573 707.394 353.74 707.427 353.917L708.138 357.518C708.206 357.863 708.312 358.199 708.454 358.52C713.835 370.44 722.397 377.226 732.764 386.625C741.574 394.605 758.98 400.446 771.039 398.274C788.592 395.111 805.457 387.311 804.204 366.354C803.426 353.32 789.122 346.128 778.169 342.087C772.619 340.039 766.121 337.822 758.676 335.435C742.612 330.303 726.875 323.516 713.485 316.313C709.071 313.934 704.299 310.91 699.17 307.241C691.95 302.078 685.979 295.986 681.256 288.962Z" fill="white"/>
<path d="M761.552 156.363L764.643 157.32C764.69 157.336 764.732 157.364 764.765 157.402C764.797 157.439 764.82 157.485 764.83 157.534C764.84 157.584 764.838 157.636 764.823 157.685C764.808 157.734 764.781 157.779 764.745 157.815C764.73 157.83 764.639 157.804 764.474 157.736C764.47 157.736 764.465 157.736 764.462 157.738C764.458 157.74 764.454 157.743 764.452 157.746C764.45 157.75 764.448 157.754 764.448 157.758C764.448 157.762 764.449 157.766 764.451 157.77L764.835 158.423C764.865 158.475 764.882 158.533 764.884 158.593C764.887 158.653 764.875 158.712 764.849 158.766C764.824 158.82 764.786 158.868 764.738 158.904C764.69 158.94 764.635 158.964 764.575 158.974C756.709 160.273 749.504 161.338 742.962 162.171C733.523 163.364 725.559 166.654 719.069 172.042C717.072 173.696 716.001 174.102 713.936 175.013C713.079 175.392 712.302 175.927 711.646 176.589C708.811 179.455 704.382 183.278 698.358 188.058C696.632 189.42 694.489 191.649 694.771 194.001C694.831 194.511 694.771 195.051 694.59 195.622C694.473 195.98 694.247 196.288 693.947 196.5C687.032 201.373 681.279 212.662 679.079 220.237C675.571 232.314 674.477 243.963 675.481 256.648C675.954 262.726 675.413 270.019 678.673 276.593C680.267 279.774 681.128 283.897 681.256 288.962C676.327 280.735 671.329 270.391 670.269 260.194C667.862 237.023 672.642 215.364 684.607 195.217C686.367 192.256 688.487 189.285 691.917 186.64C693.601 185.342 696.545 182.408 700.749 177.838C703.344 175.017 706.623 172.537 710.586 170.399C726.424 161.86 743.413 157.181 761.552 156.363Z" fill="white"/>
<path d="M209.036 265.81C207.75 277.448 207.163 285.837 207.276 290.977C207.472 299.779 207.521 305.219 207.423 307.297C206.077 334.79 205.148 353.391 204.636 363.101C204.298 369.663 204.309 382.562 203.768 391.858C202.335 416.688 201.139 433.346 201.252 453.234C201.252 453.4 201.192 453.561 201.082 453.689C200.973 453.817 200.821 453.903 200.654 453.932C198.571 454.284 194.401 454.348 188.144 454.123C178.33 453.774 166.113 455.395 155.317 454.911C146.541 454.517 140.111 454.078 133.399 454.967C133.145 455.001 132.887 454.937 132.677 454.789C132.468 454.641 132.323 454.419 132.271 454.168C132.098 453.335 132.064 452.213 132.169 450.803C133.399 434.572 135.678 401.729 136.716 377.902C137.385 362.399 137.881 352.829 138.205 349.189C139.942 329.335 139.445 306.464 141.002 286.193C141.995 273.239 142.108 262.49 142.864 250.548C143.713 237.191 144.108 228.908 144.048 225.696C143.653 206.112 144.759 190.827 146.451 172.098C146.467 171.921 146.548 171.757 146.677 171.636C146.806 171.515 146.975 171.448 147.15 171.445L220.114 170.511C220.374 170.507 220.631 170.562 220.865 170.671C221.1 170.781 221.306 170.941 221.467 171.141C238.557 192.437 256.979 219.055 275.592 242.692C286.677 256.768 293.968 266.155 297.465 270.852C304.647 280.487 310.667 288.276 315.526 294.218C329.841 311.72 341.753 331.035 357.411 347.445C357.772 347.82 358.073 348.049 358.313 348.131C358.391 348.159 358.473 348.168 358.555 348.158C358.637 348.149 358.716 348.121 358.786 348.077C358.857 348.033 358.916 347.973 358.961 347.903C359.006 347.833 359.035 347.753 359.046 347.67C361.867 325.722 361.709 300.837 363.333 280.633C364.13 270.736 364.574 262.478 364.664 255.86C364.833 243.277 367.056 226.405 366.853 212.066C366.762 206.281 367.022 200.368 367.631 194.327C368.458 186.126 368.887 178.544 368.917 171.58C368.916 171.402 368.984 171.229 369.105 171.098C369.226 170.966 369.393 170.886 369.571 170.871C369.737 170.856 370.523 170.815 371.929 170.748C396.355 169.509 414.047 168.613 425.005 168.058C428.276 167.892 431.916 167.949 435.924 168.226C436.258 168.252 436.571 168.393 436.809 168.626C437.047 168.859 437.193 169.168 437.222 169.498C437.425 171.749 437.519 173.959 437.504 176.128C437.368 193.483 435.326 210.907 434.74 228.003C434.507 234.944 433.676 244.774 432.247 257.492C431.186 266.992 431.525 281.883 430.701 293.509C429.934 304.435 429.457 315.127 429.269 325.587C429.216 328.266 428.475 338.741 427.046 357.012C426.415 365.048 426.742 372.274 426.144 379.77C424.587 399.197 423.91 413.964 424.113 424.071C424.279 432.31 424.019 440.628 423.335 449.024C423.326 449.159 423.288 449.29 423.226 449.41C423.163 449.529 423.076 449.635 422.971 449.72C422.865 449.806 422.743 449.869 422.611 449.906C422.48 449.943 422.343 449.953 422.207 449.936C409.768 448.353 397.645 448.345 385.838 449.913C383.619 450.206 380.6 450.187 376.78 449.857C369.131 449.204 363.265 449.396 354.782 449.564C354.203 449.572 352.846 449.155 350.71 448.315C350.255 448.132 349.872 447.813 349.616 447.403C345.652 441.153 340.377 434.028 333.789 426.03C328.758 419.922 323.674 413.36 318.537 406.344C302.226 384.028 287.23 364.515 273.55 347.805C266.812 339.574 260.521 331.53 254.678 323.674C239.742 303.594 229.059 290.054 215.071 272.552C212.928 269.873 211.574 267.577 209.758 265.574C209.704 265.515 209.634 265.473 209.556 265.453C209.479 265.433 209.397 265.435 209.321 265.46C209.245 265.485 209.177 265.531 209.127 265.593C209.076 265.655 209.045 265.731 209.036 265.81Z" fill="white"/>
<path d="M511.087 334.828L508.594 331.451C508.476 331.282 508.309 331.146 508.109 331.057L506.564 330.359C506.363 330.266 506.201 330.108 506.105 329.911C506.008 329.714 505.983 329.491 506.034 329.279L506.857 325.936C506.954 325.534 507.126 325.149 507.365 324.799C509.335 321.948 510.441 320.275 510.681 319.779C510.831 319.487 511.013 319.208 511.223 318.946C513.186 316.59 518.476 310.813 527.095 301.613C529.633 298.901 533.762 292.474 528.956 289.716C515.972 282.288 504.804 276.401 495.644 265.146C489 256.986 486.022 246.665 483.957 236.299C481.78 225.268 482.852 215.487 484.95 202.713C486.304 194.489 489.267 187.33 493.839 181.237C499.637 173.516 513.355 172.143 522.594 171.941C536.424 171.637 552.16 171.243 567.355 171.693C574.5 171.903 581.475 171.625 588.281 170.86C588.399 170.847 588.519 170.86 588.632 170.897C588.745 170.935 588.849 170.996 588.936 171.077C589.022 171.159 589.091 171.258 589.135 171.368C589.18 171.478 589.2 171.597 589.195 171.715C588.781 179.504 588.461 186.524 588.236 192.774C587.882 202.746 586.638 213.105 584.502 223.85C582.975 231.549 582.697 238.846 583.667 245.742C583.824 246.884 584.139 248.002 584.603 249.062C588.247 257.414 591.913 265.427 590.526 274.927C588.428 289.21 581.129 301.692 571.473 312.475C569.548 314.613 567.295 316.579 564.716 318.372C553.683 326.015 545.809 331.091 535.002 333.623C532.776 334.149 528.441 334.633 521.996 335.075C521.629 335.105 521.272 335.181 520.935 335.3C518.205 336.253 515.472 336.448 512.734 335.886C512.074 335.748 511.487 335.372 511.087 334.828Z" fill="white"/>
<path d="M254.768 456.171C251.508 456.104 246.894 455.699 245.416 459.323C245.297 459.605 245.236 459.907 245.236 460.212C245.168 468.338 244.999 473.546 244.728 475.834C244.593 476.96 243.81 477.706 242.382 478.074C240.742 475.53 240.062 473.189 240.34 471.051C240.915 466.729 241.457 462.846 241.536 458.659C241.769 446.27 242.344 434.178 243.262 422.383C243.938 413.818 243.329 396.799 244.22 384.126C244.657 377.838 244.878 373.34 244.886 370.631C244.889 370.555 244.917 370.482 244.965 370.423C245.013 370.364 245.079 370.323 245.153 370.305C245.227 370.287 245.305 370.294 245.375 370.324C245.445 370.355 245.503 370.407 245.54 370.473C249.06 377.125 251.034 381.053 255.242 386.805C268.226 404.532 282.891 425.771 297.781 442.676C298.834 443.869 299.556 445.284 299.947 446.919C299.987 447.082 299.993 447.251 299.965 447.417C299.937 447.582 299.876 447.74 299.785 447.881C299.695 448.022 299.576 448.143 299.437 448.237C299.298 448.331 299.142 448.396 298.977 448.428C297.555 448.705 296.134 448.825 294.713 448.788C286.169 448.548 277.51 449.392 268.733 451.32C264.289 452.3 259.483 454.674 254.768 456.171Z" fill="white"/>
<path d="M82.4094 437.161C82.5371 437.341 82.5559 437.566 82.4657 437.836C82.3455 438.212 82.1351 438.32 81.8346 438.163C81.474 437.99 81.35 437.731 81.4627 437.386C81.4959 437.287 81.554 437.197 81.6307 437.125C81.7074 437.054 81.7996 437.003 81.8974 436.98C81.9952 436.957 82.0947 436.961 82.185 436.993C82.2753 437.025 82.3529 437.083 82.4094 437.161Z" fill="black"/>
<path d="M254.768 456.171L253.425 456.745C253.366 456.772 253.316 456.816 253.282 456.87C253.248 456.924 253.231 456.986 253.234 457.049C253.249 457.409 253.523 457.665 254.057 457.815C254.576 457.957 254.828 458.287 254.813 458.805C254.708 461.754 254.17 464.984 253.2 468.496C252.824 469.847 251.35 471.936 248.778 474.765C246.642 477.121 244.51 478.224 242.382 478.074C243.811 477.707 244.593 476.96 244.728 475.834C244.999 473.546 245.168 468.338 245.236 460.212C245.236 459.907 245.297 459.605 245.416 459.323C246.894 455.699 251.508 456.104 254.768 456.171Z" fill="white"/>
<path d="M414.75 485.3C431.863 484.715 439.602 483.927 455.395 484.996C462.742 485.484 469.368 485.578 475.271 485.278C482.701 484.902 487.725 485.045 490.342 485.705C499.389 487.979 508.256 491.975 513.84 499.392C527.726 517.862 521.466 540.586 506.349 555.804C506.208 555.947 506.103 556.122 506.044 556.314C505.984 556.506 505.973 556.71 506.009 556.908C506.046 557.106 506.13 557.292 506.254 557.45C506.378 557.609 506.538 557.735 506.722 557.818C519.13 563.483 525.29 573.403 525.199 587.577C525.053 609.998 507.523 626.712 486.518 631.192C482.63 632.017 476.508 632.497 468.153 632.632C464.085 632.7 454.402 632.591 439.105 632.306C428.107 632.103 418.902 632.97 407.542 633.308C407.48 633.309 407.418 633.298 407.36 633.276C407.302 633.254 407.249 633.22 407.204 633.177C407.159 633.134 407.122 633.083 407.097 633.026C407.072 632.969 407.058 632.908 407.057 632.846C406.899 628.239 406.948 623.928 407.204 619.914C408.366 601.196 408.636 575.196 410.091 554.712C410.806 544.68 411.257 534.242 411.445 523.399C411.513 519.318 412.359 506.858 413.983 486.02C414 485.829 414.087 485.65 414.228 485.517C414.369 485.385 414.555 485.307 414.75 485.3Z" fill="white"/>
<path d="M562.471 511.491C566.171 507.207 571.446 502.791 578.298 498.244C593.718 488.001 614.249 484.321 632.535 485.266C648.148 486.077 662.079 491.746 674.33 502.273C684.336 510.872 690.315 520.754 694.771 532.28C699.768 545.212 699.903 557.953 697.23 571.887C693.53 591.235 682.52 607.015 666.411 617.843C663.689 619.666 659.706 621.7 654.465 623.943C647.234 627.027 640.003 629.774 632.152 630.719C618.509 632.347 605.777 630.546 593.955 625.316C576.233 617.46 561.072 603.042 552.758 586.227C548.329 577.275 546.467 567.018 547.174 555.455C547.614 548.172 548.731 537.457 551.777 530.411C555.529 521.715 559.094 515.408 562.471 511.491Z" fill="white"/>
<path d="M388.669 632.902C388.708 633.023 388.718 633.15 388.699 633.275C388.679 633.399 388.631 633.518 388.557 633.621C388.484 633.723 388.388 633.808 388.276 633.867C388.164 633.926 388.04 633.958 387.914 633.96L352.278 634.411C351.971 634.417 351.67 634.331 351.412 634.165C351.155 633.998 350.954 633.758 350.834 633.476L342.701 614.41C342.459 613.838 342.041 613.357 341.508 613.038C340.975 612.718 340.353 612.576 339.734 612.632C320.12 614.372 301.263 615.142 283.161 614.939C282.549 614.932 281.949 615.102 281.433 615.428C280.916 615.753 280.506 616.221 280.251 616.774L271.576 635.401C271.48 635.611 271.332 635.792 271.146 635.928C270.96 636.064 270.743 636.15 270.516 636.178C268.222 636.455 266.056 636.583 264.018 636.56C252.008 636.463 241.272 636.951 231.812 638.024C231.669 638.038 231.526 638.015 231.395 637.955C231.265 637.896 231.154 637.802 231.072 637.685C230.99 637.568 230.941 637.431 230.93 637.289C230.92 637.146 230.947 637.004 231.011 636.876C237.726 623.444 241.93 614.901 243.622 611.247C245.63 606.94 247.796 602.798 250.12 598.821C254.373 591.55 260.07 581.241 264.514 571.099C267.259 564.842 269.741 559.66 271.96 555.556C283.793 533.709 289.512 522.848 296.551 508.79C299.936 502.044 303.579 495.633 307.482 489.555C307.623 489.334 307.813 489.148 308.038 489.012C308.262 488.875 308.516 488.791 308.78 488.767C313.969 488.309 319.188 487.412 324.437 486.077C327.269 485.356 328.577 489.465 329.796 491.761C330.089 492.308 333.206 499.178 339.147 512.369C341.381 517.322 344.231 524.292 347.698 533.282C354.053 549.759 360.637 565.217 367.45 579.654C372.403 590.121 375.674 599.789 380.423 610.426C383.492 617.303 386.932 627.567 388.669 632.902Z" fill="white"/>
<path d="M221.524 601.545C221.632 601.537 221.741 601.552 221.843 601.589C221.945 601.626 222.038 601.684 222.116 601.76C222.194 601.835 222.254 601.926 222.294 602.027C222.334 602.128 222.352 602.236 222.347 602.344C222.031 608.887 221.264 616.444 220.046 625.013C219.512 628.734 218.662 632.479 217.496 636.245C217.412 636.521 217.232 636.758 216.989 636.916C216.746 637.075 216.455 637.144 216.165 637.112C213.601 636.827 210.736 636.707 207.569 636.752C203.08 636.819 184.091 637.405 150.602 638.508C143.976 638.718 137.355 638.763 130.737 638.643C129.09 638.62 127.262 639.059 125.683 639.104C125.411 639.111 125.145 639.027 124.928 638.866C124.711 638.704 124.556 638.475 124.487 638.215C124.186 637.052 123.983 635.634 123.878 633.961C123.055 620.443 123.765 605.901 124.871 590.369C125.172 586.197 125.296 580.561 125.243 573.463C125.183 564.481 125.6 554.198 126.495 542.612C127.714 526.934 127.838 509.983 128.977 493.91C129.105 492.05 130.03 491.104 131.752 491.074C143.416 490.864 153.964 490.125 163.394 488.857C163.578 488.832 163.765 488.848 163.943 488.903C164.12 488.958 164.283 489.051 164.42 489.175C164.558 489.299 164.666 489.452 164.739 489.623C164.811 489.793 164.845 489.977 164.838 490.162L160.292 602.029C160.289 602.096 160.3 602.163 160.323 602.226C160.347 602.288 160.383 602.346 160.429 602.394C160.476 602.442 160.531 602.481 160.593 602.507C160.655 602.533 160.721 602.547 160.788 602.547C172.889 602.592 187.403 602.502 204.332 602.277C210.905 602.187 216.635 601.943 221.524 601.545Z" fill="white"/>
<path d="M446.472 517.524C446.472 517.495 446.477 517.465 446.489 517.438C446.5 517.411 446.517 517.386 446.538 517.365C446.559 517.344 446.583 517.328 446.611 517.316C446.638 517.305 446.668 517.299 446.697 517.299L473.917 516.916C475.657 516.892 477.384 517.204 479 517.835C480.616 518.466 482.09 519.402 483.336 520.592C484.583 521.781 485.578 523.2 486.265 524.767C486.953 526.334 487.318 528.019 487.341 529.725L487.353 530.378C487.4 533.822 486.05 537.145 483.601 539.614C481.151 542.084 477.802 543.498 474.29 543.547L447.069 543.929C447.039 543.931 447.008 543.926 446.98 543.915C446.951 543.905 446.925 543.888 446.903 543.867C446.88 543.846 446.863 543.821 446.851 543.793C446.839 543.765 446.832 543.735 446.832 543.704L446.472 517.524Z" fill="black"/>
<path d="M664.662 555.23C665.204 565.434 661.681 574.652 654.092 582.884C649.287 588.099 642.642 591.926 634.159 594.364C622.623 597.696 611.598 596.409 601.085 590.504C589.511 583.998 583.667 572.506 582.979 559.54C582.291 546.574 586.882 534.542 597.7 526.855C607.537 519.869 618.367 517.427 630.189 519.528C638.882 521.058 645.895 524.161 651.227 528.836C659.642 536.227 664.121 545.025 664.662 555.23Z" fill="black"/>
<path d="M299.326 583.492C299.274 583.499 299.222 583.493 299.173 583.474C299.123 583.456 299.079 583.426 299.044 583.386C299.009 583.346 298.983 583.298 298.969 583.246C298.956 583.194 298.954 583.139 298.965 583.087C301.703 571.133 306.392 560.493 313.032 551.166C313.139 551.017 313.281 550.897 313.447 550.817C313.612 550.738 313.796 550.702 313.98 550.712C314.164 550.722 314.344 550.778 314.501 550.875C314.659 550.972 314.79 551.107 314.882 551.268C319.282 558.981 322.952 565.791 325.892 571.696C327.224 574.375 328.149 577.384 328.667 580.723C328.682 580.811 328.679 580.901 328.658 580.988C328.638 581.074 328.6 581.156 328.548 581.228C328.495 581.301 328.429 581.362 328.353 581.408C328.276 581.455 328.192 581.486 328.103 581.499C320.207 582.655 315.187 583.192 313.044 583.109C307.704 582.914 303.132 583.041 299.326 583.492Z" fill="black"/>
<path d="M442.67 598.945C444.099 591.149 444.723 582.921 444.543 574.262C444.536 573.986 444.634 573.717 444.819 573.51C445.003 573.303 445.259 573.174 445.535 573.148C455.898 572.195 465.374 571.629 473.963 571.448C477.9 571.358 486.326 572.822 488.616 576.513C491.286 580.82 491.978 585.139 490.692 589.468C488.413 597.111 479.118 598.551 472.101 598.911C465.363 599.257 457.617 599.313 448.863 599.08C446.866 599.024 445.005 599.553 443.257 599.621C443.171 599.624 443.085 599.607 443.007 599.573C442.928 599.539 442.858 599.488 442.801 599.423C442.745 599.358 442.704 599.282 442.681 599.199C442.659 599.116 442.655 599.03 442.67 598.945Z" fill="black"/>
</svg>
